<svg xmlns="http://www.w3.org/2000/svg" xmlns:xlink="http://www.w3.org/1999/xlink" xmlns:xodm="http://www.corel.com/coreldraw/odm/2003" xml:space="preserve" version="1.1" style="shape-rendering:geometricPrecision; text-rendering:geometricPrecision; image-rendering:optimizeQuality; fill-rule:evenodd; clip-rule:evenodd" viewBox="6.71 3.96 119.55 127.54">
 <defs>
  <style type="text/css">
   <![CDATA[
    .str0 {stroke:#003399;stroke-width:1.69;stroke-linejoin:round;stroke-miterlimit:22.9256}
    .fil0 {fill:#007BFF;fill-rule:nonzero}
    .fil1 {fill:white;fill-rule:nonzero}
   ]]>
  </style>
 </defs>
 <g id="Camada_x0020_1">
  <metadata id="CorelCorpID_0Corel-Layer"/>
  <path class="fil0" d="M86.95 55.73c1.06,-2.57 1.6,-5.39 1.6,-8.45l0 -9.64c0,-1.33 1.09,-2.41 2.42,-2.41l16.43 0c1.33,0 2.42,1.08 2.42,2.41l0 50.54c0,5.96 -1.07,11.5 -3.2,16.63 -2.13,5.12 -5.31,9.8 -9.55,14.04 -4.2,4.21 -8.86,7.37 -13.96,9.48 -5.12,2.11 -10.66,3.17 -16.62,3.17 -0.1,-0.03 -0.86,-0.02 -1.05,-0.01 -1.34,0 -2.42,-1.09 -2.42,-2.42l0.01 -16.39c0.03,-1.33 1.15,-2.38 2.47,-2.35l0.99 0.02c3.04,0 5.84,-0.53 8.39,-1.58l0.1 -0.05c2.59,-1.09 4.97,-2.73 7.12,-4.91 2.17,-2.17 3.79,-4.56 4.85,-7.15 1.07,-2.57 1.6,-5.41 1.6,-8.48l0 -3.61c-2.65,1.61 -5.43,2.89 -8.34,3.86 -4.34,1.45 -8.91,2.17 -13.72,2.17 -5.94,0 -11.48,-1.06 -16.61,-3.17 -5.07,-2.09 -9.72,-5.2 -13.92,-9.33l-0.16 -0.15c-4.18,-4.23 -7.34,-8.92 -9.45,-14.05 -2.11,-5.14 -3.17,-10.67 -3.17,-16.62 0,-5.96 1.06,-11.5 3.17,-16.61 2.11,-5.11 5.27,-9.76 9.46,-13.95 4.26,-4.26 8.94,-7.44 14.05,-9.56 5.13,-2.14 10.68,-3.2 16.63,-3.2l40.91 0c1.33,0 2.42,1.08 2.42,2.42l0 16.43c0,1.33 -1.09,2.41 -2.42,2.41l-40.91 0c-3.07,0 -5.9,0.54 -8.48,1.6 -2.57,1.07 -4.94,2.69 -7.1,4.85l-0.02 0.01c-2.2,2.15 -3.84,4.53 -4.93,7.12 -1.09,2.57 -1.63,5.39 -1.63,8.48 0,3.08 0.54,5.91 1.62,8.48 1.09,2.58 2.73,4.95 4.93,7.09l0.05 0.05c2.14,2.2 4.51,3.84 7.09,4.92 2.57,1.09 5.4,1.63 8.47,1.63 3.09,0 5.91,-0.55 8.48,-1.63 2.58,-1.09 4.96,-2.74 7.14,-4.94 2.15,-2.17 3.77,-4.55 4.84,-7.15z"/>
  <path class="fil1 str0" d="M23.55 75.55l11.23 0 -5.54 -13.38 -5.69 13.38zm-15.99 13.58l21.8 -44.06 0.64 0 21.31 44.06 -10.67 0 -2.7 -6.22 -17.34 0 -2.77 6.22 -10.27 0zm60.69 -19.81c-0.55,-0.32 -1.08,-0.55 -1.58,-0.68 -0.5,-0.14 -0.99,-0.21 -1.49,-0.21 -1.75,0 -3.23,0.73 -4.42,2.2 -1.2,1.46 -1.8,3.31 -1.8,5.53 0,2.09 0.52,3.83 1.58,5.22 1.05,1.38 2.33,2.08 3.85,2.08 0.58,0 1.2,-0.12 1.84,-0.38 0.64,-0.24 1.32,-0.62 2.02,-1.13l0 -12.63zm9.23 -23.52l0 43.33 -8.08 1.27 -0.36 -2.06c-1.29,0.7 -2.57,1.22 -3.83,1.55 -1.26,0.34 -2.54,0.51 -3.84,0.51 -3.71,0 -6.62,-1.23 -8.7,-3.68 -2.08,-2.46 -3.13,-5.86 -3.13,-10.2 0,-4.56 1.23,-8.21 3.67,-10.97 2.46,-2.74 5.7,-4.12 9.73,-4.12 0.94,0 1.85,0.09 2.72,0.28 0.86,0.18 1.73,0.47 2.59,0.87l0 -15.51 9.23 -1.27zm30.56 43.33l-9.24 0 0 -15.22c0,-1.36 -0.29,-2.39 -0.86,-3.13 -0.59,-0.72 -1.4,-1.08 -2.46,-1.08 -1.52,0 -2.69,0.55 -3.55,1.65 -0.85,1.1 -1.28,2.66 -1.28,4.68l0 13.1 -9.23 0 0 -26.55 8.59 0 0 4.44c1.53,-1.8 3.05,-3.12 4.55,-3.93 1.5,-0.83 3.14,-1.24 4.91,-1.24 1.94,0 3.55,0.4 4.81,1.21 1.26,0.79 2.34,2.08 3.22,3.84 1.3,-1.68 2.72,-2.95 4.26,-3.79 1.55,-0.84 3.22,-1.26 5.03,-1.26 2.94,0 5.12,0.83 6.52,2.49 1.4,1.66 2.11,4.22 2.11,7.69l0 17.1 -9.24 0 0 -15.22c0,-1.36 -0.29,-2.39 -0.86,-3.13 -0.59,-0.72 -1.4,-1.08 -2.46,-1.08 -1.54,0 -2.71,0.55 -3.56,1.65 -0.84,1.1 -1.26,2.66 -1.26,4.68l0 13.1z"/>
 </g>
</svg>