<svg xmlns="http://www.w3.org/2000/svg" xmlns:xlink="http://www.w3.org/1999/xlink" xmlns:xodm="http://www.corel.com/coreldraw/odm/2003" xml:space="preserve" version="1.1" style="shape-rendering:geometricPrecision; text-rendering:geometricPrecision; image-rendering:optimizeQuality; fill-rule:evenodd; clip-rule:evenodd" viewBox="5819.95 7971.59 9345.84 13757.88">
 <defs>
  <style type="text/css">
   <![CDATA[
    .fil0 {fill:#007BFF;fill-rule:nonzero}
   ]]>
  </style>
 </defs>
 <g id="Camada_x0020_1">
  <metadata id="CorelCorpID_0Corel-Layer"/>
  <path class="fil0" d="M12699.6 13556.37c114.39,-277.2 172.66,-581.26 172.66,-911.7l0 -1039.58c0,-144.03 116.85,-260.89 260.89,-260.89l1771.75 0c144.04,0 260.89,116.86 260.89,260.89l0 5451.46c0,642.4 -115.42,1240.76 -344.98,1794.13 -229.4,552 -572.7,1057.08 -1029.59,1514.61 -453.13,453.53 -955.73,794.59 -1506.7,1022.32 -551.84,227.88 -1149.4,341.86 -1791.89,341.86 -11.27,-3.76 -92.88,-2.32 -113.9,-1.44 -144.04,0 -260.9,-116.94 -260.9,-260.89l1.04 -1768.08c3.76,-143.39 123.58,-256.5 266.97,-252.74l106.79 1.28c327.32,0 628.9,-56.99 904.02,-170.33l11.03 -5.04c279.92,-117.26 536.18,-294.06 768.3,-529.3 233.55,-234.6 408.44,-491.9 523.62,-771.41 114.79,-278 172.66,-583.58 172.66,-914.97l0 -389.03c-286.8,172.81 -586.7,311.33 -899.79,415.72 -468.15,156.11 -961.81,234.2 -1479.84,234.2 -641.13,0 -1238.93,-114.22 -1792.61,-342.1 -546.81,-225.17 -1047.74,-560.8 -1501.27,-1006.26l-16.94 -15.58c-451.21,-456.49 -791.88,-962.45 -1019.76,-1516.37 -227.96,-553.68 -342.1,-1151.25 -342.1,-1792.46 0,-642.8 114.38,-1240.36 342.5,-1791.97 227.48,-550.8 568.15,-1053.01 1020.24,-1505.1 458.96,-458.72 964.05,-802.27 1515.89,-1031.27 553.52,-229.96 1151.88,-344.74 1794.05,-344.74l4412.27 0c144.04,0 260.89,116.86 260.89,260.89l0 1771.99c0,143.96 -116.85,260.9 -260.89,260.9l-4412.27 0c-331.39,0 -637.21,57.79 -914.97,172.57 -277.36,114.62 -533.7,289.51 -766.62,522.43l-2.08 1.04c-236.67,232.28 -414.12,488.62 -531.38,768.29 -117.5,276.97 -175.77,581.9 -175.77,914.97 0,332.12 58.27,637.45 175.13,914.81 116.86,277.61 294.07,533.3 530.98,764.94l5.2 5.28c231.72,237.08 487.18,414.04 764.78,530.74 277.36,116.86 582.94,175.13 914.73,175.13 332.75,0 637.21,-58.91 914.41,-175.53 278.4,-117.34 534.98,-295.34 769.98,-532.5 231.88,-233.96 406.76,-491.25 522.58,-771.17z"/>
 </g>
</svg>