<svg xmlns="http://www.w3.org/2000/svg" xmlns:xlink="http://www.w3.org/1999/xlink" xmlns:xodm="http://www.corel.com/coreldraw/odm/2003" xml:space="preserve" version="1.1" style="shape-rendering:geometricPrecision; text-rendering:geometricPrecision; image-rendering:optimizeQuality; fill-rule:evenodd; clip-rule:evenodd" viewBox="204.99 1647.4 8480.02 1785.19">
 <defs>
  <style type="text/css">
   <![CDATA[
    .fil0 {fill:#007BFF;fill-rule:nonzero}
   ]]>
  </style>
 </defs>
 <g id="Camada_x0020_1">
  <metadata id="CorelCorpID_0Corel-Layer"/>
  <path class="fil0" d="M1097.68 2372.07c14.84,-35.96 22.39,-75.42 22.39,-118.29l0 -134.9c0,-18.69 15.17,-33.85 33.86,-33.85l229.9 0c18.69,0 33.85,15.16 33.85,33.85l0 707.36c0,83.36 -14.97,161.01 -44.76,232.8 -29.77,71.64 -74.32,137.18 -133.6,196.54 -58.8,58.85 -124.01,103.1 -195.51,132.65 -71.6,29.57 -149.14,44.36 -232.5,44.36 -1.46,-0.49 -12.05,-0.3 -14.79,-0.19 -18.68,0 -33.85,-15.17 -33.85,-33.85l0.13 -229.42c0.49,-18.6 16.04,-33.28 34.64,-32.79l13.87 0.16c42.46,0 81.6,-7.39 117.29,-22.1l1.44 -0.65c36.32,-15.22 69.57,-38.16 99.69,-68.68 30.3,-30.44 53,-63.83 67.95,-100.1 14.89,-36.07 22.39,-75.72 22.39,-118.73l0 -50.48c-37.21,22.43 -76.12,40.41 -116.75,53.95 -60.74,20.26 -124.79,30.39 -192.01,30.39 -83.2,0 -160.76,-14.82 -232.61,-44.39 -70.96,-29.22 -135.95,-72.77 -194.8,-130.56l-2.2 -2.04c-58.55,-59.22 -102.75,-124.87 -132.32,-196.75 -29.58,-71.85 -44.39,-149.39 -44.39,-232.58 0,-83.42 14.84,-160.95 44.44,-232.53 29.52,-71.47 73.72,-136.63 132.38,-195.29 59.55,-59.53 125.09,-104.11 196.7,-133.82 71.82,-29.84 149.47,-44.74 232.8,-44.74l572.52 0c18.69,0 33.85,15.17 33.85,33.86l0 229.93c0,18.68 -15.16,33.85 -33.85,33.85l-572.52 0c-43.01,0 -82.68,7.5 -118.73,22.4 -35.99,14.86 -69.25,37.56 -99.47,67.78l-0.27 0.14c-30.72,30.14 -53.74,63.4 -68.96,99.69 -15.24,35.94 -22.8,75.5 -22.8,118.73 0,43.09 7.56,82.71 22.72,118.7 15.17,36.02 38.16,69.2 68.9,99.26l0.68 0.67c30.06,30.77 63.21,53.73 99.23,68.87 35.99,15.17 75.64,22.73 118.7,22.73 43.17,0 82.68,-7.64 118.65,-22.78 36.12,-15.22 69.41,-38.32 99.9,-69.09 30.09,-30.36 52.79,-63.75 67.82,-100.07zm6748.16 -679.93c71.85,-29.84 149.49,-44.74 232.82,-44.74 83.53,0 161.09,14.9 232.64,44.74 71.55,29.82 136.69,74.37 195.35,133.66 59.22,58.6 103.8,123.76 133.62,195.31 29.84,71.56 44.74,149.15 44.74,232.67 0,83.33 -14.9,160.98 -44.74,232.8 -29.44,70.93 -73.42,135.87 -131.81,194.72l-1.81 1.95c-58.61,58.61 -123.82,102.8 -195.48,132.43 -71.58,29.55 -149.09,44.42 -232.51,44.42 -83.19,0 -160.76,-14.82 -232.61,-44.39 -71.76,-29.55 -137.36,-73.72 -196.72,-132.46 -58.88,-59.5 -103.08,-125.12 -132.62,-196.89 -29.58,-71.85 -44.39,-149.39 -44.39,-232.58 0,-83.42 14.84,-160.95 44.44,-232.53 29.55,-71.47 73.72,-136.6 132.4,-195.29 59.56,-59.53 125.1,-104.11 196.68,-133.82zm114.09 849.14c36,15.17 75.65,22.73 118.73,22.73 42.23,0 80.95,-7.21 116.21,-21.62l2.52 -1.19c36.27,-15.22 69.52,-38.24 99.67,-68.92l0.27 -0.27c30.11,-30.09 52.7,-63.32 67.65,-99.5 14.92,-36.05 22.42,-75.7 22.42,-118.73 0,-43.23 -7.53,-82.9 -22.45,-118.97 -14.95,-36.16 -37.56,-69.39 -67.7,-99.64 -30.26,-30.14 -63.49,-52.76 -99.61,-67.68 -36.08,-14.92 -75.75,-22.45 -118.98,-22.45 -43.03,0 -82.68,7.5 -118.75,22.4 -35.99,14.86 -69.25,37.56 -99.48,67.78l-0.27 0.14c-30.68,30.14 -53.7,63.4 -68.95,99.69 -15.16,36.15 -22.77,75.72 -22.77,118.73 0,43.11 7.55,82.73 22.69,118.73 15.17,36.04 38.16,69.17 68.9,99.23l0.68 0.67c30.06,30.77 63.18,53.73 99.22,68.87zm-1520.88 -832.67c80.97,-40.79 171.56,-61.21 271.63,-61.21 83.33,0 160.98,14.9 232.8,44.74 71.61,29.71 137.15,74.26 196.51,133.63 59.01,58.88 103.24,124.04 132.7,195.48 29.55,71.58 44.34,149.17 44.34,232.53l0 572.46c0,18.69 -15.17,33.86 -33.86,33.86l-228.41 0c-18.68,0 -33.85,-15.17 -33.85,-33.86l0 -572.46c0,-43.25 -7.45,-82.9 -22.32,-118.97 -14.87,-36.02 -37.51,-69.23 -67.87,-99.59 -30.65,-30.17 -64.37,-52.81 -100.88,-67.78 -36.34,-14.9 -76.13,-22.4 -119.16,-22.4 -43.01,0 -82.65,7.5 -118.73,22.4 -36.26,14.97 -69.6,37.59 -99.88,67.73 -30.11,30.25 -52.73,63.48 -67.68,99.64 -14.92,36.07 -22.45,75.74 -22.45,118.97l0 572.46c0,18.69 -15.16,33.86 -33.85,33.86l-229.9 0c-18.69,0 -33.86,-15.17 -33.86,-33.86l0 -572.46c0,-43.23 -7.52,-82.9 -22.45,-118.97 -14.95,-36.16 -37.56,-69.39 -67.7,-99.64 -30.25,-30.14 -63.51,-52.76 -99.64,-67.68 -36.07,-14.92 -75.75,-22.45 -118.97,-22.45 -43.03,0 -82.68,7.5 -118.73,22.4 -35.99,14.86 -69.25,37.56 -99.47,67.78l-0.27 0.14c-30.72,30.14 -53.74,63.4 -68.96,99.69 -15.24,35.94 -22.8,75.5 -22.8,118.73l0 572.46c0,18.69 -15.17,33.86 -33.85,33.86l-228.39 0c-18.68,0 -33.85,-15.17 -33.85,-33.86l0 -572.46c0,-83.42 14.84,-160.95 44.44,-232.53 29.52,-71.47 73.72,-136.63 132.38,-195.29 59.55,-59.53 125.09,-104.11 196.7,-133.82 71.82,-29.84 149.47,-44.74 232.8,-44.74 100.53,0 191.53,20.42 272.88,61.21 69.36,34.77 131.3,84.25 185.62,148.36 54.17,-64.05 115.86,-113.56 184.98,-148.36zm-2283.07 0c80.97,-40.79 171.56,-61.21 271.63,-61.21 83.34,0 160.98,14.9 232.8,44.74 71.83,29.8 137.39,74.37 196.67,133.66 58.8,58.79 103,123.95 132.52,195.45 29.55,71.58 44.33,149.17 44.33,232.53l0 572.46c0,18.69 -15.16,33.86 -33.85,33.86l-228.39 0c-18.68,0 -33.85,-15.17 -33.85,-33.86l0 -572.46c0,-43.25 -7.45,-82.93 -22.34,-118.97 -14.87,-36.02 -37.51,-69.23 -67.87,-99.59 -30.66,-30.19 -64.35,-52.81 -100.85,-67.78 -36.35,-14.9 -76.13,-22.4 -119.17,-22.4 -43,0 -82.65,7.5 -118.75,22.4 -36.24,14.97 -69.58,37.59 -99.88,67.73 -30.12,30.25 -52.73,63.51 -67.65,99.64 -14.93,36.07 -22.46,75.74 -22.46,118.97l0 572.46c0,18.69 -15.16,33.86 -33.85,33.86l-229.93 0c-18.68,0 -33.85,-15.17 -33.85,-33.86l0 -572.46c0,-43.23 -7.53,-82.9 -22.45,-118.97 -14.95,-36.16 -37.56,-69.39 -67.68,-99.67 -30.25,-30.11 -63.51,-52.73 -99.64,-67.65 -36.07,-14.92 -75.77,-22.45 -118.97,-22.45 -43.01,0 -82.68,7.5 -118.73,22.4 -35.99,14.86 -69.27,37.56 -99.5,67.78l-0.27 0.14c-30.71,30.14 -53.7,63.4 -68.95,99.69 -15.25,35.94 -22.78,75.5 -22.78,118.73l0 572.46c0,18.69 -15.16,33.86 -33.85,33.86l-228.41 0c-18.69,0 -33.86,-15.17 -33.86,-33.86l0 -572.46c0,-83.42 14.85,-160.95 44.45,-232.53 29.54,-71.47 73.71,-136.6 132.4,-195.29 59.56,-59.53 125.1,-104.11 196.7,-133.82 71.82,-29.84 149.47,-44.74 232.8,-44.74 100.53,0 191.53,20.42 272.88,61.21 69.39,34.77 131.27,84.25 185.6,148.36 54.19,-64.08 115.86,-113.56 185,-148.36zm-2198.71 -16.47c71.85,-29.84 149.5,-44.74 232.83,-44.74 83.52,0 161.08,14.9 232.64,44.74 71.55,29.82 136.68,74.37 195.34,133.66 59.23,58.6 103.81,123.76 133.62,195.31 29.82,71.56 44.74,149.15 44.74,232.67 0,83.33 -14.95,161 -44.74,232.8 -29.43,70.93 -73.42,135.87 -131.81,194.72l-1.81 1.95c-58.61,58.61 -123.82,102.8 -195.48,132.43 -71.58,29.55 -149.09,44.42 -232.5,44.42 -83.2,0 -160.76,-14.82 -232.61,-44.39 -71.77,-29.55 -137.36,-73.72 -196.73,-132.46 -58.88,-59.5 -103.07,-125.12 -132.62,-196.89 -29.57,-71.85 -44.39,-149.39 -44.39,-232.58 0,-83.42 14.84,-160.95 44.44,-232.53 29.55,-71.47 73.72,-136.6 132.41,-195.29 59.55,-59.53 125.07,-104.11 196.67,-133.82zm114.1 849.14c35.99,15.17 75.64,22.73 118.73,22.73 42.19,0 80.95,-7.21 116.21,-21.62l2.52 -1.19c36.26,-15.22 69.52,-38.24 99.66,-68.92l0.27 -0.27c30.12,-30.09 52.7,-63.32 67.65,-99.5 14.92,-36.05 22.43,-75.7 22.43,-118.73 0,-43.23 -7.53,-82.9 -22.45,-118.97 -14.95,-36.16 -37.57,-69.39 -67.71,-99.64 -30.25,-30.14 -63.48,-52.76 -99.61,-67.68 -36.07,-14.92 -75.78,-22.45 -118.97,-22.45 -43.04,0 -82.68,7.5 -118.76,22.4 -35.99,14.86 -69.25,37.56 -99.47,67.78l-0.27 0.14c-30.71,30.14 -53.71,63.4 -68.95,99.69 -15.25,35.94 -22.78,75.5 -22.78,118.73 0,43.11 7.56,82.73 22.69,118.73 15.17,36.04 38.16,69.17 68.9,99.23l0.68 0.67c30.06,30.77 63.21,53.73 99.23,68.87z"/>
 </g>
</svg>