<svg xmlns="http://www.w3.org/2000/svg" xmlns:xlink="http://www.w3.org/1999/xlink" xmlns:xodm="http://www.corel.com/coreldraw/odm/2003" xml:space="preserve" version="1.1" style="shape-rendering:geometricPrecision; text-rendering:geometricPrecision; image-rendering:optimizeQuality; fill-rule:evenodd; clip-rule:evenodd" viewBox="26.51 7.05 82.44 121.36">
 <defs>
  <style type="text/css">
   <![CDATA[
    .fil0 {fill:#007BFF;fill-rule:nonzero}
   ]]>
  </style>
 </defs>
 <g id="Camada_x0020_1">
  <metadata id="CorelCorpID_0Corel-Layer"/>
  <path class="fil0" d="M87.2 56.31c1,-2.44 1.52,-5.12 1.52,-8.04l0 -9.17c0,-1.27 1.03,-2.3 2.3,-2.3l15.63 0c1.27,0 2.3,1.03 2.3,2.3l0 48.09c0,5.67 -1.02,10.94 -3.04,15.83 -2.03,4.86 -5.05,9.32 -9.09,13.36 -3.99,4 -8.43,7 -13.29,9.01 -4.86,2.01 -10.13,3.02 -15.8,3.02 -0.1,-0.03 -0.82,-0.02 -1.01,-0.01 -1.27,0 -2.3,-1.03 -2.3,-2.3l0.01 -15.6c0.03,-1.27 1.09,-2.26 2.36,-2.23l0.94 0.01c2.89,0 5.55,-0.5 7.97,-1.5l0.1 -0.05c2.47,-1.03 4.73,-2.59 6.78,-4.67 2.06,-2.06 3.6,-4.33 4.62,-6.8 1.01,-2.45 1.52,-5.15 1.52,-8.07l0 -3.43c-2.53,1.52 -5.18,2.74 -7.94,3.66 -4.13,1.38 -8.48,2.07 -13.05,2.07 -5.66,0 -10.93,-1.01 -15.81,-3.02 -4.83,-1.98 -9.25,-4.94 -13.25,-8.87l-0.15 -0.14c-3.98,-4.03 -6.98,-8.49 -8.99,-13.38 -2.01,-4.88 -3.02,-10.15 -3.02,-15.81 0,-5.67 1.01,-10.94 3.02,-15.8 2.01,-4.86 5.01,-9.29 9,-13.28 4.05,-4.05 8.5,-7.08 13.37,-9.1 4.89,-2.03 10.16,-3.04 15.83,-3.04l38.92 0c1.27,0 2.3,1.03 2.3,2.3l0 15.63c0,1.27 -1.03,2.3 -2.3,2.3l-38.92 0c-2.93,0 -5.62,0.51 -8.07,1.53 -2.45,1.01 -4.71,2.55 -6.77,4.6l-0.01 0.01c-2.09,2.05 -3.66,4.31 -4.69,6.78 -1.04,2.44 -1.55,5.13 -1.55,8.07 0,2.93 0.51,5.63 1.54,8.07 1.03,2.45 2.6,4.71 4.69,6.75l0.04 0.05c2.05,2.09 4.3,3.65 6.75,4.68 2.45,1.03 5.14,1.54 8.07,1.54 2.93,0 5.62,-0.52 8.06,-1.55 2.46,-1.03 4.72,-2.6 6.8,-4.69 2.04,-2.07 3.58,-4.34 4.61,-6.81z"/>
 </g>
</svg>